<svg id="Group_3" data-name="Group 3" xmlns="http://www.w3.org/2000/svg" xmlns:xlink="http://www.w3.org/1999/xlink" width="32.422" height="32.955" viewBox="0 0 32.422 32.955">
  <defs>
    <linearGradient id="linear-gradient" x1="0.713" y1="0.009" x2="0.292" y2="0.901" gradientUnits="objectBoundingBox">
      <stop offset="0" stop-color="#8dd2b7"/>
      <stop offset="0.131" stop-color="#8bd2b6"/>
      <stop offset="0.791" stop-color="#429e79"/>
      <stop offset="1" stop-color="#429e79"/>
    </linearGradient>
    <linearGradient id="linear-gradient-2" x1="0.763" y1="0.061" x2="0.148" y2="0.934" gradientUnits="objectBoundingBox">
      <stop offset="0" stop-color="#8bd2b6"/>
      <stop offset="0.358" stop-color="#62cba1"/>
      <stop offset="0.577" stop-color="#429e79"/>
      <stop offset="1" stop-color="#429e79"/>
    </linearGradient>
    <linearGradient id="linear-gradient-3" x1="0.708" y1="0.099" x2="0.287" y2="0.991" gradientUnits="objectBoundingBox">
      <stop offset="0" stop-color="#9adcc2"/>
      <stop offset="0.508" stop-color="#429e79"/>
      <stop offset="1" stop-color="#429e79"/>
    </linearGradient>
    <linearGradient id="linear-gradient-4" x1="0.852" y1="0.066" x2="0.237" y2="0.939" gradientUnits="objectBoundingBox">
      <stop offset="0" stop-color="#8ed5b8"/>
      <stop offset="0.176" stop-color="#8be2bf"/>
      <stop offset="0.361" stop-color="#54b28c"/>
      <stop offset="0.888" stop-color="#429e79"/>
      <stop offset="1" stop-color="#429e79"/>
    </linearGradient>
  </defs>
  <path id="Path_1" data-name="Path 1" d="M279,293.484A12.486,12.486,0,1,0,291.49,305.97,12.486,12.486,0,0,0,279,293.484Zm.005,17.335a4.851,4.851,0,1,1,4.851-4.851,4.851,4.851,0,0,1-4.851,4.851Z" transform="translate(-259.074 -285.504)" fill="#429e79"/>
  <g id="Group_1" data-name="Group 1" transform="translate(7.442 7.977)">
    <path id="Path_2" data-name="Path 2" d="M266.537,421.887a12.486,12.486,0,0,0,12.357,12.357h.258a8.668,8.668,0,1,0-.129-17.335,4.846,4.846,0,0,1,4.846,4.846,8.668,8.668,0,0,1-17.335.129Z" transform="translate(-266.534 -409.269)" fill="url(#linear-gradient)"/>
    <path id="Path_3" data-name="Path 3" d="M389.967,363.826a4.846,4.846,0,0,1,4.846-4.846,8.668,8.668,0,1,1,.129,17.335A12.486,12.486,0,0,0,407.3,363.958c0-.043,0-.086,0-.129V363.7a8.668,8.668,0,1,0-17.335.129Z" transform="translate(-382.324 -351.337)" fill="url(#linear-gradient-2)"/>
    <path id="Path_4" data-name="Path 4" d="M328.249,302.132a8.661,8.661,0,0,0,8.668,8.666,4.846,4.846,0,0,1-4.846-4.846,8.668,8.668,0,0,1,17.335-.129,12.486,12.486,0,0,0-12.36-12.357h-.258a8.661,8.661,0,0,0-8.538,8.666Z" transform="translate(-324.426 -293.463)" fill="url(#linear-gradient-3)"/>
    <path id="Path_5" data-name="Path 5" d="M266.519,305.968v.129a8.668,8.668,0,0,0,17.335-.129,4.846,4.846,0,0,1-4.846,4.846,8.668,8.668,0,0,1-.129-17.335,12.486,12.486,0,0,0-12.357,12.357C266.52,305.882,266.519,305.925,266.519,305.968Z" transform="translate(-266.517 -293.479)" fill="url(#linear-gradient-4)"/>
  </g>
  <g id="Group_2" data-name="Group 2" transform="translate(0 0)">
    <path id="Path_6" data-name="Path 6" d="M238.151,236.935l-7.134.99.881,1.889.615,1.318c.691,1.482,4.046,1.381,7.492-.227s5.679-4.113,4.988-5.6c-.005-.012-.015-.022-.02-.033L243.49,232.1Z" transform="translate(-225.769 -227.925)"/>
    <path id="Path_7" data-name="Path 7" d="M146.237,174.407l2.6-.242v-.5l.786-.451.173.064-.624.494.039.351s-.039,4.06.951,5.571a2.255,2.255,0,0,0,1.98-.924l-1.8-4.559-.172-.369,1.319-1.02.015.3-.932.87.593-.055,7.134-.99,5.342-4.833,3.514-3.476-12.332.855Z" transform="translate(-146.237 -164.645)"/>
  </g>
</svg>
